# AST/ASF file generated using VICON BodyLanguage
# -----------------------------------------------
:version 1.10
:name VICON
:units
  mass 1.0
  length 0.45
  angle deg
:documentation
   .ast/.asf automatically generated from VICON data using
   VICON BodyBuilder and BodyLanguage model FoxedUp or BRILLIANT.MOD
:root
   order TX TY TZ RX RY RZ
   axis XYZ
   position 0 0 0  
   orientation 0 0 0 
:bonedata
  begin
     id 1 
     name lhipjoint
     direction 0.692814 -0.645514 0.321437 
     length 2.38754 
     axis 0 0 0  XYZ
  end
  begin
     id 2 
     name lfemur
     direction 0.34202 -0.939693 0  
     length 6.41921  
     axis 0 0 20  XYZ
    dof rx ry rz
    limits (-160.0 20.0)
           (-70.0 70.0)
           (-60.0 70.0)
  end
  begin
     id 3 
     name ltibia
     direction 0.34202 -0.939693 0   
     length 6.98247   
     axis 0 0 20   XYZ
    dof rx
    limits (-10.0 170.0)
  end
  begin
     id 4 
     name lfoot
     direction 0.0947186 -0.260237 0.960888   
     length 1.83034   
     axis -90 7.62852e-016 20   XYZ
    dof rx rz
    limits (-45.0 90.0)
           (-70.0 20.0)
  end
  begin
     id 5 
     name ltoes
     direction 1.53538e-011 -4.21952e-011 1   
     length 0.920499   
     axis -90 7.62852e-016 20   XYZ
    dof rx
    limits (-90.0 20.0)
  end
  begin
     id 6 
     name rhipjoint
     direction -0.631686 -0.693949 0.345555   
     length 2.2209  
     axis 0 0 0  XYZ 
  end
  begin
     id 7 
     name rfemur
     direction -0.34202 -0.939693 0   
     length 6.49542   
     axis 0 0 -20   XYZ
    dof rx ry rz
    limits (-160.0 20.0)
           (-70.0 70.0)
           (-70.0 60.0)
  end
  begin
     id 8 
     name rtibia
     direction -0.34202 -0.939693 0   
     length 7.21712   
     axis 0 0 -20   XYZ
    dof rx
    limits (-10.0 170.0)
 end
 begin
     id 9 
     name rfoot
     direction -0.0825378 -0.226771 0.970444   
     length 1.89724  
     axis -90 -7.62852e-016 -20   XYZ
    dof rx rz
    limits (-45.0 90.0)
           (-20.0 70.0)
  end
  begin
     id 10 
     name rtoes
     direction -1.53515e-011 -4.22016e-011 1   
     length 0.955868   
     axis -90 -7.62852e-016 -20   XYZ
    dof rx
    limits (-90.0 20.0)
  end
  begin
     id 11 
     name lowerback
     direction -0.0104711 0.984802 -0.173368   
     length 1.84931   
     axis 0 0 0   XYZ
    dof rx ry rz
    limits (-20.0 45.0)
           (-30.0 30.0)
           (-30.0 30.0)
  end
  begin
     id 12 
     name upperback
     direction -0.00286433 0.999996 -0.000382853   
     length 1.85768   
     axis 0 0 0   XYZ
    dof rx ry rz
    limits (-20.0 45.0)
           (-30.0 30.0)
           (-30.0 30.0)
  end
  begin
     id 13 
     name thorax
     direction 0.00167534 0.996793 0.0800069   
     length 1.92   
     axis 0 0 0   XYZ
    dof rx ry rz
    limits (-20.0 45.0)
           (-30.0 30.0)
           (-30.0 30.0)
  end
  begin
     id 14 
     name lowerneck
     direction -0.0672491 0.995415 0.068018   
     length 1.58923   
     axis 0 0 0   XYZ
    dof rx ry rz
    limits (-20.0 45.0)
           (-30.0 30.0)
           (-30.0 30.0)
  end
  begin
     id 15 
     name upperneck
     direction 0.0958019 0.982476 -0.159884   
     length 1.60189   
     axis 0 0 0   XYZ
    dof rx ry rz
    limits (-20.0 45.0)
           (-30.0 30.0)
           (-30.0 30.0)
  end
  begin
     id 16
     name head
     direction 0.032989 0.997338 -0.0650226  
     length 1.61681  
     axis 0 0 0   XYZ
    dof rx ry rz
    limits (-20.0 45.0)
           (-30.0 30.0)
           (-30.0 30.0)
  end
  begin
     id 17 
     name lclavicle
     direction 0.954279 0.298875 -0.00496069  
     length 2.99449  
     axis 0 0 0   XYZ
    dof ry rz
    limits (-20.0 10.0)
           (0.0 20.0)
  end
  begin
     id 18 
     name lhumerus
     direction 1 -4.48985e-011 -4.2057e-027   
     length 4.79185   
     axis 180 -30 -90   XYZ
    dof rx ry rz
    limits (-60.0 90.0)
           (-90.0 90.0)
           (-90.0 90.0)
  end
  begin
     id 19
     name lradius
     direction 1 -4.48945e-011 1.15441e-028   
     length 2.65553   
     axis 180 -30 -90   XYZ
    dof rx
    limits (-10.0 170.0)
  end
  begin
     id 20
     name lwrist
     direction 1 -4.4899e-011 4.8894e-028   
     length 1.32777   
     axis -2.56392e-016 90 90   XYZ
    dof ry
    limits (-180.0 0.0)
 end
  begin
     id 21 
     name lhand
     direction 1 -4.48908e-011 9.7788e-028   
     length 0.743904   
     axis -6.23971e-016 90 90   XYZ
    dof rx rz
    limits (-90.0 90.0)
           (-45.0 45.0)
  end
  begin
     id 22 
     name lfingers
     direction 1 -4.49068e-011 1.95576e-027   
     length 0.599754   
     axis -1.24794e-015 90 90   XYZ
    dof rx
    limits (0.0 90.0)
  end
  begin
     id 23
     name lthumb
     direction 0.707107 -6.34883e-011 0.707107   
     length 0.861131   
     axis -90 45 2.85299e-015   XYZ
    dof rx rz
    limits (-45.0 45.0)
           (-45.0 45.0)
  end
  begin
     id 24 
     name rclavicle
     direction -0.957921 0.286916 0.00811568   
     length 3.06817  
     axis 0 0 0   XYZ 
    dof ry rz
    limits (-10.0 20.0)
           (-20.0 0.0)
  end
  begin
     id 25 
     name rhumerus
     direction -1 -4.48971e-011 -3.07942e-027  
     length 4.77254   
     axis 180 30 90   XYZ
    dof rx ry rz
    limits (-90.0 60.0)
           (-90.0 90.0)
           (-90.0 90.0)
  end
  begin
     id 26 
     name rradius
     direction -1 -4.48957e-011 -9.6815e-028   
     length 2.75995   
     axis 180 30 90   XYZ
    dof rx
    limits (-10.0 170.0)
  end
  begin
     id 27 
     name rwrist
     direction -1 -4.48979e-011 4.8894e-028   
     length 1.37997   
     axis -2.56392e-016 -90 -90   XYZ
    dof ry
    limits (-180.0 0.0)
  end
  begin
     id 28
     name rhand
     direction -1 -4.48906e-011 9.7788e-028   
     length 0.701619   
     axis -6.23971e-016 -90 -90   XYZ
    dof rx rz
    limits (-90.0 90.0)
           (-45.0 45.0)
  end
  begin
     id 29
     name rfingers
     direction -1 -4.49018e-011 1.95576e-027   
     length 0.565663   
     axis -1.24794e-015 -90 -90   XYZ
    dof rx
    limits (0.0 90.0)
  end
  begin
     id 30
     name rthumb
     direction -0.707107 -6.34881e-011 0.707107   
     length 0.812183   
     axis -90 -45 -2.85299e-015   XYZ
    dof rx rz
    limits (-45.0 45.0)
           (-45.0 45.0)
  end
:hierarchy
  begin
    root lhipjoint rhipjoint lowerback
    lhipjoint lfemur
    lfemur ltibia
    ltibia lfoot
    lfoot ltoes
    rhipjoint rfemur
    rfemur rtibia
    rtibia rfoot
    rfoot rtoes
    lowerback upperback
    upperback thorax
    thorax lowerneck lclavicle rclavicle
    lowerneck upperneck
    upperneck head
    lclavicle lhumerus
    lhumerus lradius
    lradius lwrist
    lwrist lhand lthumb
    lhand lfingers
    rclavicle rhumerus
    rhumerus rradius
    rradius rwrist
    rwrist rhand rthumb
    rhand rfingers
  end

#!OML:ASF F:\VICON\USERDATA\INSTALL\rory3\rory3.ASF
:FULLY-SPECIFIED
:DEGREES
939
root 0.173865 14.942 -0.9461 6.09436 3.93797 2.10394
lowerback 21.6441 -0.179685 -2.05044
upperback -7.96125 -1.09692 -1.04469
thorax -21.3539 -0.277866 0.395401
lowerneck -18.038 -6.12904 -9.81829
upperneck 26.1362 -8.03961 7.78898
head 12.3775 -3.59713 3.29865
rclavicle -1.00014e-015 1.47101e-014
rhumerus -74.8148 31.6281 -82.5379
rradius 131.621
rwrist -43.3976
rhand 39.6905 11.0231
rfingers 7.12502
rthumb 62.1381 -0.29772
lclavicle -1.00014e-015 1.47101e-014
lhumerus -71.3012 -43.1602 81.592
lradius 127.327
lwrist 84.3515
lhand 25.7156 42.9311
lfingers 7.12502
lthumb 49.8174 64.2492
rfemur -31.6215 -4.64171 13.9332
rtibia 55.5964
rfoot -23.7961 -7.71692
rtoes -19.9908
lfemur -31.6089 7.27758 -19.4859
ltibia 51.0108
lfoot -17.3926 -10.0677
ltoes -5.41727
940
root 0.171787 14.9402 -0.94754 6.09457 3.94557 2.10423
lowerback 21.6425 -0.160841 -2.03735
upperback -7.90758 -1.06094 -1.0231
thorax -21.2822 -0.263555 0.398519
lowerneck -17.9617 -6.03682 -9.86652
upperneck 25.9944 -7.88716 7.79268
head 12.2916 -3.53547 3.33343
rclavicle 1.66482e-015 -1.94809e-014
rhumerus -74.808 31.5607 -82.5696
rradius 131.58
rwrist -43.3126
rhand 39.7262 10.9691
rfingers 7.12502
rthumb 62.1678 -0.314263
lclavicle 1.66482e-015 -1.94809e-014
lhumerus -71.2602 -43.1786 81.7587
lradius 127.216
lwrist 84.3491
lhand 25.7613 43.1217
lfingers 7.12502
lthumb 49.8592 64.418
rfemur -31.6294 -4.7132 13.9503
rtibia 55.5993
rfoot -23.7776 -7.7259
rtoes -20.1436
lfemur -31.6316 7.25229 -19.4735
ltibia 51.0437
lfoot -17.389 -10.0469
ltoes -5.31158
941
root 0.168964 14.9391 -0.949841 6.10168 3.92662 2.07628
lowerback 21.6268 -0.152627 -2.02605
upperback -7.86234 -1.03698 -0.986504
thorax -21.2124 -0.252509 0.42445
lowerneck -17.7785 -5.89415 -9.96855
upperneck 25.8355 -7.67847 7.87519
head 12.1776 -3.44677 3.4185
rclavicle 9.41121e-015 -1.03368e-014
rhumerus -74.7519 31.6144 -82.6276
rradius 131.522
rwrist -43.2948
rhand 39.7901 10.8298
rfingers 7.12502
rthumb 62.221 -0.386167
lclavicle 9.41121e-015 -1.03368e-014
lhumerus -71.2692 -43.1614 81.9319
lradius 127.141
lwrist 84.3772
lhand 25.6791 43.2064
lfingers 7.12502
lthumb 49.7839 64.5418
rfemur -31.6711 -4.75172 14.0009
rtibia 55.6259
rfoot -23.7711 -7.7164
rtoes -20.2258
lfemur -31.6691 7.24878 -19.4305
ltibia 51.0825
lfoot -17.3427 -10.0601
ltoes -5.0661
942
root 0.167445 14.9392 -0.949384 6.10232 3.90534 2.07276
lowerback 21.4688 -0.139027 -2.01014
upperback -7.73639 -1.00197 -0.972455
thorax -20.9511 -0.242345 0.416395
lowerneck -17.4416 -5.72771 -9.98597
upperneck 25.4631 -7.45055 7.91951
head 11.9414 -3.34915 3.47512
rclavicle 9.25591e-016 9.14409e-015
rhumerus -74.4948 31.6616 -82.6047
rradius 131.434
rwrist -43.2103
rhand 39.7872 10.9317
rfingers 7.12502
rthumb 62.2186 -0.287356
lclavicle 9.25591e-016 9.14409e-015
lhumerus -71.138 -43.2256 82.0359
lradius 127.047
lwrist 84.378
lhand 25.6013 43.1709
lfingers 7.12502
lthumb 49.7126 64.5433
rfemur -31.6948 -4.80529 14.0036
rtibia 55.6755
rfoot -23.8113 -7.59551
rtoes -20.0363
lfemur -31.6753 7.24417 -19.423
ltibia 51.1121
lfoot -17.3516 -10.0427
ltoes -4.72957
943
root 0.165544 14.9354 -0.947693 6.12677 3.90082 2.12388
lowerback 21.1842 -0.115204 -2.02457
upperback -7.56647 -0.966545 -1.00663
thorax -20.558 -0.234144 0.369605
lowerneck -16.9361 -5.5629 -9.96201
upperneck 24.9547 -7.24954 7.97787
head 11.623 -3.26137 3.52421
rclavicle -1.59742e-014 -5.96354e-015
rhumerus -74.1644 31.6234 -82.535
rradius 131.369
rwrist -43.1997
rhand 39.9655 11.0011
rfingers 7.12502
rthumb 62.3665 -0.0288167
lclavicle -1.59742e-014 -5.96354e-015
lhumerus -70.8569 -43.3836 82.0486
lradius 126.921
lwrist 84.3196
lhand 25.6483 43.0233
lfingers 7.12502
lthumb 49.7557 64.3734
rfemur -31.7407 -4.89032 13.9563
rtibia 55.7326
rfoot -23.8875 -7.50705
rtoes -20.0055
lfemur -31.7081 7.24237 -19.4774
ltibia 51.1557
lfoot -17.3545 -10.0442
ltoes -4.45961
944
root 0.163694 14.9306 -0.946383 6.09625 3.89044 2.21201
lowerback 20.9423 -0.0950807 -2.06673
upperback -7.38426 -0.948134 -1.05566
thorax -20.1769 -0.230499 0.328946
lowerneck -16.2731 -5.36874 -10.0787
upperneck 24.4176 -7.02136 8.18329
head 11.2753 -3.16044 3.65688
rclavicle 8.24956e-015 5.1684e-015
rhumerus -73.855 31.615 -82.4897
rradius 131.33
rwrist -43.1944
rhand 40.0978 10.9689
rfingers 7.12502
rthumb 62.4762 0.0808388
lclavicle 8.24956e-015 5.1684e-015
lhumerus -70.6453 -43.5238 82.0829
lradius 126.867
lwrist 84.1479
lhand 25.7575 42.989
lfingers 7.12502
lthumb 49.8557 64.2871
rfemur -31.7252 -4.96 13.8605
rtibia 55.7798
rfoot -23.965 -7.43286
rtoes -20.0768
lfemur -31.6776 7.26044 -19.5764
ltibia 51.2045
lfoot -17.4108 -10.0002
ltoes -4.71573
945
root 0.160111 14.9271 -0.947344 6.01966 3.86153 2.1369
lowerback 20.7508 -0.0703491 -1.96452
upperback -7.22946 -0.873635 -1.05623
thorax -19.8661 -0.215937 0.241498
lowerneck -15.343 -5.11653 -10.1896
upperneck 23.7796 -6.72339 8.35522
head 10.8318 -3.03705 3.78544
rclavicle -1.0781e-014 2.0276e-014
rhumerus -73.6564 31.648 -82.5078
rradius 131.296
rwrist -43.1434
rhand 40.1601 11.0482
rfingers 7.12502
rthumb 62.5278 0.227322
lclavicle -1.0781e-014 2.0276e-014
lhumerus -70.5811 -43.7296 82.2099
lradius 126.843
lwrist 83.9453
lhand 25.8526 43.0506
lfingers 7.12502
lthumb 49.9427 64.3033
rfemur -31.6841 -4.94007 13.9468
rtibia 55.8231
rfoot -23.9955 -7.32222
rtoes -19.7178
lfemur -31.6406 7.32718 -19.4776
ltibia 51.2672
lfoot -17.4528 -9.98028
ltoes -5.13207
946
root 0.154257 14.9245 -0.945791 5.91349 3.84843 1.99577
lowerback 20.4826 -0.0447162 -1.83912
upperback -7.05039 -0.782104 -1.0189
thorax -19.4799 -0.193763 0.177768
lowerneck -14.1014 -4.81467 -10.2757
upperneck 22.8627 -6.3616 8.47167
head 10.223 -2.89435 3.89286
rclavicle 3.27684e-015 1.64991e-014
rhumerus -73.3983 31.7691 -82.5471
rradius 131.213
rwrist -43.0958
rhand 40.2869 11.0928
rfingers 7.12502
rthumb 62.6326 0.409566
lclavicle 3.27684e-015 1.64991e-014
lhumerus -70.4569 -43.9924 82.3458
lradius 126.771
lwrist 83.778
lhand 25.8281 43.0652
lfingers 7.12502
lthumb 49.9204 64.3297
rfemur -31.5965 -4.90867 14.1188
rtibia 55.8583
rfoot -24.0569 -7.23241
rtoes -19.3067
lfemur -31.5682 7.39731 -19.2831
ltibia 51.3264
lfoot -17.4204 -10.0714
ltoes -4.78372
947
root 0.149704 14.9212 -0.9433 5.80739 3.84696 2.0321
lowerback 20.2414 -0.0134746 -1.90833
upperback -6.55474 -0.737453 -0.995838
thorax -19.2992 -0.181025 0.170507
lowerneck -12.6842 -4.48229 -10.4605
upperneck 21.66 -5.97815 8.75419
head 9.49786 -2.73406 4.07081
rclavicle -1.31872e-014 -1.21259e-014
rhumerus -72.8583 32.0219 -82.5091
rradius 131.026
rwrist -43.0779
rhand 40.2821 11.1658
rfingers 7.12502
rthumb 62.6287 0.477289
lclavicle -1.31872e-014 -1.21259e-014
lhumerus -70.0283 -44.2742 82.2653
lradius 126.611
lwrist 83.6505
lhand 25.9067 43.2506
lfingers 7.12502
lthumb 49.9922 64.4774
rfemur -31.4966 -4.96092 14.0917
rtibia 55.9156
rfoot -24.0733 -7.27343
rtoes -19.4651
lfemur -31.4638 7.41101 -19.285
ltibia 51.3775
lfoot -17.413 -10.1428
ltoes -4.54516
948
root 0.147562 14.9169 -0.941803 5.6978 3.84525 2.12419
lowerback 19.9056 -0.00799219 -1.93739
upperback -6.30204 -0.734962 -1.0715
thorax -18.7552 -0.188721 0.0983194
lowerneck -11.0238 -4.08757 -10.6419
upperneck 20.2392 -5.56357 9.21646
head 8.66881 -2.54619 4.30617
rclavicle 2.42269e-015 -7.35503e-015
rhumerus -72.2681 32.2817 -82.5066
rradius 130.829
rwrist -43.0582
rhand 40.2931 11.1529
rfingers 7.12502
rthumb 62.6377 0.476246
lclavicle 2.42269e-015 -7.35503e-015
lhumerus -69.424 -44.6312 81.9361
lradius 126.418
lwrist 83.5976
lhand 25.9355 43.4461
lfingers 7.12502
lthumb 50.0187 64.659
rfemur -31.3972 -5.01624 13.9852
rtibia 55.9892
rfoot -24.0983 -7.24693
rtoes -19.5883
lfemur -31.345 7.40721 -19.3646
ltibia 51.4253
lfoot -17.4704 -10.1157
ltoes -4.59566
